<svg width="409" height="347" viewBox="0 0 409 347" fill="none" xmlns="http://www.w3.org/2000/svg">
<path fill-rule="evenodd" clip-rule="evenodd" d="M215.177 4.72048C242.979 11.7879 256.022 39.0094 282.721 48.4293C307.996 57.3468 341.162 44.9173 364.094 57.2617C386.422 69.2803 395.43 92.6053 403.187 113.275C410.551 132.9 409.349 153.656 407.948 174.122C406.652 193.064 401.326 211.29 395.225 229.617C389.063 248.123 387.737 269.245 371.586 283.341C355.332 297.527 328.069 298.46 306.553 307.006C286.704 314.891 269.309 325.835 248.624 332.185C225.898 339.161 202.389 349.76 178.436 346.337C154.505 342.916 135.921 327.399 118.705 313.616C102.911 300.973 99.4112 280.471 82.0824 269.199C58.5942 253.921 11.7664 260.13 1.41516 237.322C-8.48646 215.504 36.7181 198.509 39.5113 175.395C42.2882 152.417 9.37701 131.451 16.9017 109.169C23.9441 88.3159 58.4011 82.2529 76.3914 66.1886C96.1975 48.5027 102.821 20.7762 128.755 9.28973C154.253 -2.0033 187.417 -2.33645 215.177 4.72048Z" fill="#CFD4E2"/>
</svg>
